<svg xmlns="http://www.w3.org/2000/svg" viewBox="0 0 1200 520" role="img" aria-labelledby="title desc">
  <title id="title">Keyboard Base</title>
  <desc id="desc">タイピング練習用のキーボード下地</desc>
  <defs>
    <linearGradient id="g" x1="0" y1="0" x2="0" y2="1">
      <stop offset="0%" stop-color="#f8fafc"/>
      <stop offset="100%" stop-color="#e2e8f0"/>
    </linearGradient>
  </defs>
  <rect x="26" y="20" width="1148" height="360" rx="22" fill="url(#g)" stroke="#94a3b8" stroke-width="3"/>
  <g fill="#ffffff" stroke="#cbd5e1" stroke-width="2">
    <rect x="70" y="62" width="84" height="56" rx="8"/>
    <rect x="164" y="62" width="84" height="56" rx="8"/>
    <rect x="258" y="62" width="84" height="56" rx="8"/>
    <rect x="352" y="62" width="84" height="56" rx="8"/>
    <rect x="446" y="62" width="84" height="56" rx="8"/>
    <rect x="540" y="62" width="84" height="56" rx="8"/>
    <rect x="634" y="62" width="84" height="56" rx="8"/>
    <rect x="728" y="62" width="84" height="56" rx="8"/>
    <rect x="822" y="62" width="84" height="56" rx="8"/>
    <rect x="916" y="62" width="84" height="56" rx="8"/>
    <rect x="1010" y="62" width="84" height="56" rx="8"/>

    <rect x="98" y="132" width="88" height="56" rx="8"/>
    <rect x="192" y="132" width="88" height="56" rx="8"/>
    <rect x="286" y="132" width="88" height="56" rx="8"/>
    <rect x="380" y="132" width="88" height="56" rx="8"/>
    <rect x="474" y="132" width="88" height="56" rx="8"/>
    <rect x="568" y="132" width="88" height="56" rx="8"/>
    <rect x="662" y="132" width="88" height="56" rx="8"/>
    <rect x="756" y="132" width="88" height="56" rx="8"/>
    <rect x="850" y="132" width="88" height="56" rx="8"/>
    <rect x="944" y="132" width="88" height="56" rx="8"/>

    <rect x="124" y="202" width="88" height="56" rx="8"/>
    <rect x="218" y="202" width="88" height="56" rx="8"/>
    <rect x="312" y="202" width="88" height="56" rx="8"/>
    <rect x="406" y="202" width="88" height="56" rx="8"/>
    <rect x="500" y="202" width="88" height="56" rx="8"/>
    <rect x="594" y="202" width="88" height="56" rx="8"/>
    <rect x="688" y="202" width="88" height="56" rx="8"/>
    <rect x="782" y="202" width="88" height="56" rx="8"/>
    <rect x="876" y="202" width="88" height="56" rx="8"/>
    <rect x="970" y="202" width="88" height="56" rx="8"/>

    <rect x="154" y="272" width="88" height="56" rx="8"/>
    <rect x="248" y="272" width="88" height="56" rx="8"/>
    <rect x="342" y="272" width="88" height="56" rx="8"/>
    <rect x="436" y="272" width="88" height="56" rx="8"/>
    <rect x="530" y="272" width="88" height="56" rx="8"/>
    <rect x="624" y="272" width="88" height="56" rx="8"/>
    <rect x="718" y="272" width="88" height="56" rx="8"/>
    <rect x="812" y="272" width="88" height="56" rx="8"/>
    <rect x="906" y="272" width="88" height="56" rx="8"/>
    <rect x="1000" y="272" width="88" height="56" rx="8"/>

    <rect x="144" y="344" width="912" height="44" rx="12"/>
  </g>
</svg>
